{"title":"Arthur.2011.720p.BRRip.x264.Feel-Free ","uid":6495190,"size":2794498319,"categoryP":"video","categoryS":"hd___movies","magnet":"?xt=urn:btih:91ac4bb0244256af76b26166e21e348a006863c1&amp;dn=Arthur.2011.720p.BRRip.x264.Feel-Free+&amp;tr=udp%3A%2F%2Ftracker.openbittorrent.com%3A80&amp;tr=udp%3A%2F%2Fopen.demonii.com%3A1337&amp;tr=udp%3A%2F%2Ftracker.coppersurfer.tk%3A6969&amp;tr=udp%3A%2F%2Fexodus.desync.com%3A6969","seeders":0,"leechers":1,"uploader":"TPBAgri","files":-1,"time":1309035548,"description":"Genre:Comedy\nLanguage:English\nIMDb:http://www.imdb.com/title/tt1334512/\nSource:1080p.Bluray.x264-MaxHD Thanks!\n\nFormat : MPEG-4\nFormat profile : Base Media\nCodec ID : isom\nFile size : 2.60 GiB\nDuration : 1h 49mn\nOverall bit rate : 3 381 Kbps\n\nVideo\nID : 1\nFormat : AVC\nFormat/Info : Advanced Video Codec\nFormat profile : &lt;a class=&quot;__cf_email__&quot; href=&quot;/cdn-cgi/l/email-protection&quot; data-cfemail=&quot;cb83a2aca38b87ffe5fa&quot;&gt;[email&amp;#160;protected]&lt;/a&gt;&lt;script cf-hash='f9e31' type=&quot;text/javascript&quot;&gt;\n/* &lt;![CDATA[ */!function(){try{var t=&quot;currentScript&quot;in document?document.currentScript:function(){for(var t=document.getElementsByTagName(&quot;script&quot;),e=t.length;e--;)if(t[e].getAttribute(&quot;cf-hash&quot;))return t[e]}();if(t&amp;&amp;t.previousSibling){var e,r,n,i,c=t.previousSibling,a=c.getAttribute(&quot;data-cfemail&quot;);if(a){for(e=&quot;&quot;,r=parseInt(a.substr(0,2),16),n=2;a.length-n;n+=2)i=parseInt(a.substr(n,2),16)^r,e+=String.fromCharCode(i);e=document.createTextNode(e),c.parentNode.replaceChild(e,c)}}}catch(u){}}();/* ]]&gt; */&lt;/script&gt;\nFormat settings, CABAC : Yes\nFormat settings, ReFrames : 3 frames\nCodec ID : avc1\nCodec ID/Info : Advanced Video Coding\nDuration : 1h 49mn\nBit rate mode : Variable\nBit rate : 3 000 Kbps\nMaximum bit rate : 17.8 Mbps\nWidth : 1 280 pixels\nHeight : 720 pixels\nDisplay aspect ratio : 16:9\nFrame rate mode : Constant\nFrame rate : 23.976 fps\nColor space : YUV\nChroma subsampling : 4:2:0\nBit depth : 8 bits\nScan type : Progressive\nBits/(Pixel*Frame) : 0.136\nStream size : 2.29 GiB (88%)\nWriting library : x264\n\nAudio\nID : 2\nFormat : AAC\nFormat/Info : Advanced Audio Codec\nFormat version : Version 4\nFormat profile : LC\nFormat settings, SBR : No\nCodec ID : 40\nDuration : 1h 49mn\nBit rate mode : Variable\nBit rate : 395 Kbps\nMaximum bit rate : 510 Kbps\nChannel(s) : 6 channels\nChannel positions : Front: L C R, Side: L R, LFE\nSampling rate : 48.0 KHz\nStream size : 311 MiB (12%)\n\n\nPlot:\nA drunken playboy stands to lose a wealthy inheritance when he falls for a woman his family doesn't like.\n\n &lt;a href=&quot;\nhttp://leetleech.org/images/74473076748581526140.png&quot; rel=&quot;nofollow&quot; target=&quot;_NEW&quot;&gt;\nhttp://leetleech.org/images/74473076748581526140.png&lt;/a&gt;\n &lt;a href=&quot;\nhttp://leetleech.org/images/14333908770490701352.png&quot; rel=&quot;nofollow&quot; target=&quot;_NEW&quot;&gt;\nhttp://leetleech.org/images/14333908770490701352.png&lt;/a&gt;\n &lt;a href=&quot;\nhttp://leetleech.org/images/62403439339722853442.png&quot; rel=&quot;nofollow&quot; target=&quot;_NEW&quot;&gt;\nhttp://leetleech.org/images/62403439339722853442.png&lt;/a&gt;\n &lt;a href=&quot;\nhttp://leetleech.org/images/30664090070575094901.png&quot; rel=&quot;nofollow&quot; target=&quot;_NEW&quot;&gt;\nhttp://leetleech.org/images/30664090070575094901.png&lt;/a&gt;\n\n","torrent":{"xt":"urn:btih:91ac4bb0244256af76b26166e21e348a006863c1","amp;dn":"Arthur.2011.720p.BRRip.x264.Feel-Free+","amp;tr":["udp%3A%2F%2Ftracker.openbittorrent.com%3A80","udp%3A%2F%2Fopen.demonii.com%3A1337","udp%3A%2F%2Ftracker.coppersurfer.tk%3A6969","udp%3A%2F%2Fexodus.desync.com%3A6969"],"infoHash":"91ac4bb0244256af76b26166e21e348a006863c1","infoHashBuffer":{"type":"Buffer","data":[145,172,75,176,36,66,86,175,118,178,97,102,226,30,52,138,0,104,99,193]},"announce":[],"urlList":[]}}